<svg width="" height="" viewBox="0 0 30 17" fill="none" xmlns="http://www.w3.org/2000/svg">
<path fill-rule="evenodd" clip-rule="evenodd" d="M22.69 5.56812C21.0866 5.56812 19.7867 6.86796 19.7867 8.47139C19.7867 10.0748 21.0866 11.3747 22.69 11.3747C24.2935 11.3747 25.5933 10.0748 25.5933 8.47139C25.5933 6.86796 24.2935 5.56812 22.69 5.56812ZM16.7867 8.47139C16.7867 5.2111 19.4297 2.56812 22.69 2.56812C25.9503 2.56812 28.5933 5.2111 28.5933 8.47139C28.5933 11.7317 25.9503 14.3747 22.69 14.3747C19.4297 14.3747 16.7867 11.7317 16.7867 8.47139Z" fill="#02CA2E"/>
<path fill-rule="evenodd" clip-rule="evenodd" d="M1 8.14917C1 7.32074 1.67157 6.64917 2.5 6.64917H18.3518C19.1802 6.64917 19.8518 7.32074 19.8518 8.14917C19.8518 8.9776 19.1802 9.64917 18.3518 9.64917H2.5C1.67157 9.64917 1 8.9776 1 8.14917Z" fill="#02CA2E"/>
</svg>
