<?xml version="1.0" encoding="UTF-8"?>
<svg xmlns="http://www.w3.org/2000/svg" xmlns:xlink="http://www.w3.org/1999/xlink" width="90px" height="90px" viewBox="0 0 90 90" version="1.1">
<g id="surface1">
<path style=" stroke:none;fill-rule:evenodd;fill:rgb(0%,52.156863%,100%);fill-opacity:1;" d="M 16.457031 75.601562 C 10.777344 75.601562 6.171875 70.996094 6.171875 65.3125 L 6.171875 19.027344 C 6.171875 13.347656 10.777344 8.742188 16.457031 8.742188 L 73.027344 8.742188 C 78.710938 8.742188 83.3125 13.347656 83.3125 19.027344 L 83.3125 42.171875 L 78.171875 42.171875 L 78.171875 19.027344 C 78.171875 16.1875 75.867188 13.886719 73.027344 13.886719 L 16.457031 13.886719 C 13.617188 13.886719 11.3125 16.1875 11.3125 19.027344 L 11.3125 65.3125 C 11.3125 68.15625 13.617188 70.457031 16.457031 70.457031 L 42.171875 70.457031 L 42.171875 75.601562 Z M 16.457031 75.601562 "/>
<path style=" stroke:none;fill-rule:nonzero;fill:rgb(0%,52.156863%,100%);fill-opacity:1;" d="M 18.464844 57.601562 C 18.066406 57.601562 17.742188 57.277344 17.742188 56.878906 L 17.742188 37.75 C 17.742188 37.351562 18.066406 37.027344 18.464844 37.027344 L 22.164062 37.027344 C 22.5625 37.027344 22.886719 37.351562 22.886719 37.75 L 22.886719 56.878906 C 22.886719 57.277344 22.5625 57.601562 22.164062 57.601562 Z M 18.464844 57.601562 "/>
<path style=" stroke:none;fill-rule:nonzero;fill:rgb(0%,52.156863%,100%);fill-opacity:1;" d="M 28.75 57.601562 C 28.351562 57.601562 28.027344 57.277344 28.027344 56.878906 L 28.027344 35.175781 C 28.027344 34.78125 28.351562 34.457031 28.75 34.457031 L 32.453125 34.457031 C 32.847656 34.457031 33.171875 34.78125 33.171875 35.175781 L 33.171875 56.878906 C 33.171875 57.277344 32.847656 57.601562 32.453125 57.601562 Z M 28.75 57.601562 "/>
<path style=" stroke:none;fill-rule:nonzero;fill:rgb(0%,52.156863%,100%);fill-opacity:1;" d="M 49.320312 57.601562 C 48.921875 57.601562 48.601562 57.277344 48.601562 56.878906 L 48.601562 32.605469 C 48.601562 32.207031 48.921875 31.886719 49.320312 31.886719 L 53.023438 31.886719 C 53.421875 31.886719 53.742188 32.207031 53.742188 32.605469 L 53.742188 56.878906 C 53.742188 57.277344 53.421875 57.601562 53.023438 57.601562 Z M 49.320312 57.601562 "/>
<path style=" stroke:none;fill-rule:nonzero;fill:rgb(0%,52.156863%,100%);fill-opacity:1;" d="M 39.035156 57.601562 C 38.636719 57.601562 38.3125 57.277344 38.3125 56.878906 L 38.3125 22.320312 C 38.3125 21.921875 38.636719 21.601562 39.035156 21.601562 L 42.738281 21.601562 C 43.136719 21.601562 43.457031 21.921875 43.457031 22.320312 L 43.457031 56.878906 C 43.457031 57.277344 43.136719 57.601562 42.738281 57.601562 Z M 39.035156 57.601562 "/>
<path style=" stroke:none;fill-rule:nonzero;fill:rgb(0%,52.156863%,100%);fill-opacity:1;" d="M 76 46.121094 C 75.382812 45.5 74.378906 45.5 73.761719 46.121094 L 70.976562 48.90625 L 76.578125 54.503906 L 79.359375 51.71875 C 79.980469 51.101562 79.980469 50.097656 79.359375 49.480469 Z M 76 46.121094 "/>
<path style=" stroke:none;fill-rule:nonzero;fill:rgb(0%,52.156863%,100%);fill-opacity:1;" d="M 74.335938 56.746094 L 68.734375 51.144531 L 59.347656 60.535156 L 49.960938 69.921875 L 49.960938 75.523438 L 55.558594 75.523438 Z M 74.335938 56.746094 "/>
</g>
</svg>
